# xmcd
# 
# Track frame offsets:
#	151
#	17152
#	34395
#	49481
#	62158
#	73670
#	88190
#	103392
#	119944
#	137119
#	149907
#	163545
#
# Disc length: 2389 seconds
#
# Revision: 1
# Processed by: cddbd v1.5.1PL0 Copyright (c) Steve Scherf et al.
# Submitted via: Audio-CD-Archiv 3.00.487
#
DISCID=ca09530c
DTITLE=Bobby Womack - The Bobby Womack Collection - Disk 2
DYEAR=1900
DGENRE=blues
TTITLE0=Harry Hippie
TTITLE1=Across The 110th Street
TTITLE2=All Along The Watchtower
TTITLE3=That`s Heaven To Me
TTITLE4=Lookin`For A Love
TTITLE5=I Don`t Know (What The World Comming To)
TTITLE6=I Don`t Wanna Be Hurt By Your Love Again
TTITLE7=If You Want My Love, Put Some Down On It
TTITLE8=Check It Out
TTITLE9=It`s All Over Now
TTITLE10=Where There`s A Will, There Is A Way
TTITLE11=Daylight
EXTD=
EXTT0=
EXTT1=
EXTT2=
EXTT3=
EXTT4=
EXTT5=
EXTT6=
EXTT7=
EXTT8=
EXTT9=
EXTT10=
EXTT11=
PLAYORDER=
